<svg xmlns="http://www.w3.org/2000/svg" width="312" height="512" viewBox="0 0 624 1096" preserveAspectRatio="xMidYMid meet"><defs><linearGradient x1="0" x2="1" y1="1" y2="0" id="delapouite-swipe-card-gradient-1"><stop offset="0%" stop-color="#ff6cab" stop-opacity="1"></stop><stop offset="100%" stop-color="#7a21ef" stop-opacity="1"></stop></linearGradient></defs><g fill="url(#delapouite-swipe-card-gradient-1)" ><path d="M201 279.6c-1.4.2-5.9.9-10 1.5s-9.1 1.4-11 1.9c-1.9.5-8.2 1.6-14 2.5-5.8.9-17.7 2.9-26.5 4.6-8.8 1.6-21.4 3.8-28 5-6.6 1.1-14 2.4-16.5 2.8-2.5.5-10.6 1.8-18 3-19.1 3.2-26.6 5.9-37.6 13.6-4.9 3.6-6.3 5.1-7.3 8.7-2.2 7-1.6 16.5 1.3 22.5 1.4 2.8 3 5.4 3.5 5.7.6.4 3.7-1.3 7-3.8 9.6-7 16.9-9.3 53.1-16.3 1.4-.2 9.3-1.8 17.5-3.5 8.3-1.7 16.1-3.3 17.5-3.5 1.4-.3 12.4-2.4 24.5-4.8 33.1-6.6 39-7.5 51.6-7.5 23.7 0 41.5 5.4 66.9 20.4 7.4 4.3 15.1 8.8 17 9.9l3.6 2 10.4-4.7c14.1-6.4 32.8-17.5 33-19.7 0-.3-3.5-2.2-7.7-4.2-4.3-1.9-13-6-19.3-9-31.1-14.8-43.6-19.4-68.5-25.3-5.8-1.4-37.2-2.7-42.5-1.8z"></path><path d="M338.1 331.5c-12.4 8.5-28.4 16.2-45.6 21.8-22.6 7.3-35.4 9.9-68.5 13.8-15.5 1.8-67.9 2.3-92.5.9-19.8-1.1-22.6-1.1-28.5.4-9.6 2.5-14.7 5.3-20.9 11.5-20.5 20.6-22.6 61.3-4.7 91.5 4.3 7.1 9 11.9 42.9 44.1 10.3 9.8 19 17.5 19.4 17.2.3-.4.1-1.3-.6-2-2-2.5-5.1-13-6.7-22.7-1.7-10.5-2-33-.5-38.8.6-2 1.7-7.8 2.6-12.7 3.1-17.1 13-37.3 22.3-45.7 6.7-6 10.2-7.5 28.2-11.3 4.1-.9 9.1-2 11-2.6 4.9-1.3 48.7-10.7 79-16.9 8-1.6 18.3-3.9 23-5 4.7-1 13.5-2.9 19.5-4 6.1-1.2 12.4-2.5 14-3.1 1.7-.5 8.9-2 16-3.4 7.2-1.3 21.6-4.3 32-6.6 24.5-5.3 32.8-6.8 33.8-6.2.4.2.7-.1.7-.6 0-.6-.5-1.1-1.1-1.1-.5 0-3.4-1.1-6.2-2.4-2.9-1.4-10.8-4.8-17.7-7.6-6.9-2.8-13.8-5.8-15.5-6.5-9.9-4.4-21.2-8.5-23.4-8.5-1.5 0-6.6 2.8-12 6.5zm-230.9 53.6c5.1 2.8 10.1 5.7 11.3 6.4 1.1.7 8 4.5 15.2 8.4l13.3 7.2-5 6.3c-6.7 8.6-14.9 27.2-15 34.1-.1 5.2-1.5 4.9-11.6-2.7-5.5-4-16.6-12.3-24.7-18.3l-14.8-11 .6-4.5c2-13.6 13-31 19.5-31 1.1 0 6.1 2.3 11.2 5.1z"></path><path d="M21.9 333.5c-3.8 8.5-5.1 18-5.3 37.1-.1 11.8.3 18.9 1 20.5.7 1.3 1.7 3.9 2.4 5.6 2.2 5.9 9.4 15.1 24.5 31.4 8.1 8.8 14.9 15.8 15.1 15.6.2-.1-.2-3.4-.7-7.2-2.3-15.5 2.1-39.8 8.9-49.9 1.5-2.2 2.2-4.1 1.6-4.3-.5-.2-5.9-3-11.8-6.3-11.8-6.6-20.6-12.9-25.3-18.4-5.8-6.5-9.1-18.6-7-25.9 1.2-4.5-1.2-3.2-3.4 1.8zM419 361.5c-3 .8-11.1 2.5-18 3.9-11.6 2.4-26.8 5.5-68 14.2-9.1 1.9-22.8 4.8-30.5 6.4-7.7 1.6-22.5 4.8-33 7-10.4 2.3-23 5-28 6-11.6 2.4-48.1 10.5-56.5 12.6-13.3 3.3-21.5 10.3-28.5 24.4l-4 8c-1.4 2.7-3.3 9.5-6.2 22.5-2.6 11.6-2.5 42 .1 52.5 6.5 26.4 17.4 40.3 34.2 43.8 6.9 1.5 12.1.8 31.3-3.9 35.4-8.7 80.4-22.2 124.1-37.1 8-2.7 18.3-6.2 23-7.8 4.7-1.6 13.7-4.7 20-7 6.3-2.2 15.6-5.4 20.5-7.1 14.1-4.8 19.5-7.8 25.5-13.8 13.1-13.4 22.9-37.3 26.5-64.9 1.8-13.4 1.9-18.9.4-28.5-2.4-16.7-7.5-26.2-16.2-30.3-5.9-2.7-8.8-2.9-16.7-.9zm9.7 16.6c3.4 1.3 8 5.5 9.9 9.1 2 3.8 1.8 4.1-1.6 2.3-3.7-1.9-11-1.9-18.4 0-3.1.8-9.2 2.2-13.4 3.1-4.2.8-12.2 2.6-17.7 3.9-5.5 1.3-15.4 3.6-22 5-15.1 3.4-37.9 8.5-58.2 13.1-8.7 1.9-22.8 5.1-31.3 7-8.5 1.9-18.2 4.1-21.5 4.9-3.3.7-8.3 1.8-11.1 2.4-2.8.5-8.9 1.9-13.5 3s-11.8 2.7-15.9 3.6c-21.5 4.7-25.5 6.3-31.8 12.9-5.3 5.5-10.6 13.5-12.8 19.3-1 2.7-2.6 6.4-3.6 8.3l-1.8 3.5.6-4c1.3-8.3 6.8-24.3 10.6-30.9 4.6-7.8 9.9-13.7 14.3-15.9 3.7-1.8 14.3-4.8 25-7.1 4.4-1 11.6-2.6 16-3.7 4.4-1 13.2-3 19.5-4.4 28.3-6.2 45.6-9.9 60-13 41-8.8 73.2-15.7 94.5-20.4 14.2-3.2 19.9-3.7 24.2-2z"></path></g></svg>